<svg xmlns="http://www.w3.org/2000/svg" width="1200" height="630" viewBox="0 0 1200 630">
  <rect width="1200" height="630" fill="#041711"/>
  <radialGradient id="glow" cx="50%" cy="50%" r="50%">
    <stop offset="0%" stop-color="#0B352A" stop-opacity="0.8"/>
    <stop offset="100%" stop-color="#041711" stop-opacity="0"/>
  </radialGradient>
  <rect width="1200" height="630" fill="url(#glow)"/>

  <!-- Submarine icon -->
  <g transform="translate(440, 220)">
    <path d="M2 50 C2 30 18 20 40 20 L80 20 C102 20 118 30 118 50 C118 70 102 80 80 80 L40 80 C18 80 2 70 2 50Z" stroke="#F3C94F" stroke-width="4" fill="none"/>
    <line x1="68" y1="20" x2="68" y2="4" stroke="#F3C94F" stroke-width="4" stroke-linecap="round"/>
    <line x1="68" y1="4" x2="86" y2="4" stroke="#F3C94F" stroke-width="4" stroke-linecap="round"/>
    <circle cx="38" cy="50" r="5" stroke="#F3C94F" stroke-width="3" fill="none"/>
    <circle cx="60" cy="50" r="5" stroke="#F3C94F" stroke-width="3" fill="none"/>
    <circle cx="82" cy="50" r="5" stroke="#F3C94F" stroke-width="3" fill="none"/>
    <line x1="118" y1="50" x2="320" y2="50" stroke="#F3C94F" stroke-width="4" stroke-linecap="round"/>
    <line x1="312" y1="40" x2="312" y2="60" stroke="#F3C94F" stroke-width="4" stroke-linecap="round"/>
  </g>

  <!-- Text -->
  <text x="600" y="380" font-family="'Michroma', sans-serif" font-size="52" fill="#F5F2E9" letter-spacing="8" text-anchor="middle">MeriScope<tspan fill="#F3C94F">.ai</tspan></text>
  <text x="600" y="420" font-family="sans-serif" font-weight="600" font-size="18" fill="#A59F95" letter-spacing="6" text-anchor="middle">AI SYSTEMS + INSIGHTS</text>
</svg>
